<svg version="1.1" id="Layer_1" xmlns="http://www.w3.org/2000/svg" xmlns:xlink="http://www.w3.org/1999/xlink" x="0px" y="0px"
	 width="100%" viewBox="0 0 1024 672" enable-background="new 0 0 1024 672" xml:space="preserve">
<path fill="#000000" opacity="1.000000" stroke="none" 
	d="
M185.165329,283.953430 
	C174.622955,280.672882 164.113617,279.034729 152.911560,277.009430 
	C159.148560,260.881439 167.774857,247.034805 179.960114,235.721848 
	C203.054138,214.280975 230.608826,201.678772 261.869324,199.019363 
	C315.273163,194.476212 372.645020,230.813751 388.951569,276.971497 
	C376.119598,279.590637 363.242859,281.699066 350.884064,285.924347 
	C338.548218,290.141754 327.040405,295.994904 315.254608,303.507965 
	C314.664246,297.222961 311.230743,292.547913 310.766144,286.856598 
	C310.470673,283.237122 311.626892,280.906769 315.140930,279.483795 
	C321.157471,277.047363 327.038025,274.276611 332.993317,271.686798 
	C334.883728,270.864685 336.693817,270.046326 336.812073,267.600067 
	C336.932007,265.119537 335.202271,264.140503 333.319733,263.283844 
	C314.223572,254.593857 295.122620,245.914322 276.037018,237.201202 
	C273.767395,236.165024 271.696259,236.137695 269.354187,237.206009 
	C250.419281,245.842941 231.436279,254.374405 212.477722,262.959656 
	C210.374527,263.912079 207.797882,264.690491 207.853073,267.570770 
	C207.906662,270.367767 210.316971,271.203247 212.508636,272.151337 
	C219.867050,275.334503 219.989029,275.377472 219.244629,283.222870 
	C218.901184,286.842468 217.936432,290.405853 217.192474,293.982056 
	C217.066910,294.585571 216.631332,295.124634 216.082092,296.193359 
	C205.878922,291.998535 196.185059,286.786346 185.165329,283.953430 
M203.364990,247.473816 
	C206.391632,248.023758 206.782028,245.338226 208.427551,243.817886 
	C206.859543,242.353165 205.586517,241.164001 204.238312,239.904602 
	C202.574905,241.494614 201.201447,242.807495 199.753433,244.191620 
	C200.992081,245.299484 201.971939,246.175888 203.364990,247.473816 
M232.694870,221.645233 
	C231.193726,222.587784 229.577118,223.418625 228.956940,225.439087 
	C230.281250,226.493286 231.553513,227.506073 233.069580,228.712936 
	C234.504166,227.474487 235.816589,226.341507 237.365082,225.004730 
	C235.808792,223.726501 234.553116,222.695175 232.694870,221.645233 
z"/>
<path fill="#000000" opacity="1.000000" stroke="none" 
	d="
M320.434021,354.424469 
	C325.349518,356.268555 328.684570,359.385895 331.195557,363.501740 
	C334.118378,368.292633 333.928772,369.144562 328.626038,370.808380 
	C314.135406,375.355011 301.011566,382.378021 289.357208,392.121399 
	C284.236023,396.402863 279.464417,401.037354 275.288177,406.264587 
	C274.369110,407.414978 273.592285,408.756836 271.682281,409.277283 
	C269.268799,407.968048 268.090576,405.245300 266.258148,403.192535 
	C253.089905,388.440948 237.086716,377.997833 218.486893,371.445984 
	C212.433884,369.313812 212.327667,368.942047 215.727631,363.648285 
	C218.530396,359.284302 222.275391,356.223785 227.147354,354.380402 
	C233.238403,352.075745 239.158127,349.407654 244.094711,344.976624 
	C249.512619,340.113556 250.662323,334.553802 246.552826,328.547180 
	C238.711258,317.085480 236.494217,305.059906 240.406174,291.558716 
	C243.202942,281.906250 239.872040,277.573547 229.966034,276.267822 
	C227.419296,284.453705 232.433365,292.143951 231.603683,300.372009 
	C229.207825,302.073090 226.206619,301.428162 223.526489,301.754791 
	C220.534393,302.119446 221.189819,299.550476 221.215347,297.489380 
	C221.291595,291.334747 223.997742,285.651703 223.963181,279.409973 
	C223.935944,274.491943 223.040039,270.969727 217.838303,269.608154 
	C216.955734,269.377136 216.225723,268.563232 215.511490,268.077332 
	C215.602188,266.062897 217.139481,265.853394 218.254425,265.346497 
	C235.236115,257.625763 252.244186,249.963043 269.221497,242.232727 
	C271.295319,241.288452 273.160828,240.898071 275.390350,241.917084 
	C292.358246,249.672333 309.371674,257.327881 326.354156,265.051422 
	C327.371887,265.514282 328.596802,265.828308 329.218536,267.427826 
	C327.904358,269.837921 325.041534,270.120300 322.804749,271.280548 
	C320.589905,272.429413 318.128784,273.146057 316.019196,274.447083 
	C309.960907,278.183289 304.573730,278.089722 298.694855,273.506927 
	C294.978760,270.610077 290.063019,269.350281 285.066101,269.431366 
	C290.980652,271.068390 296.681793,273.125885 301.827972,276.572998 
	C304.689178,278.489563 306.443115,280.821350 306.194855,284.393005 
	C305.911926,288.463104 307.216064,292.147552 308.414520,296.007141 
	C311.339783,305.427856 309.076233,314.431641 304.684570,322.977417 
	C303.544525,325.195923 302.137543,327.276703 300.864655,329.427551 
	C297.165955,335.677338 297.983002,340.501862 303.469940,345.314392 
	C308.330170,349.577148 314.158875,352.012787 320.434021,354.424469 
M257.806366,330.761322 
	C261.595367,333.816528 262.170044,338.077454 259.367004,341.339691 
	C254.852936,346.593323 257.873199,349.936371 261.011719,353.705719 
	C268.514374,362.716278 276.294373,363.354828 284.670013,355.421539 
	C287.423187,352.813751 289.801605,349.808411 291.328247,346.362701 
	C285.293610,338.785217 285.668396,337.065247 290.546051,328.628845 
	C294.816711,321.242310 299.863892,314.189972 297.955719,304.279755 
	C296.330322,295.838287 295.990204,294.096710 287.583282,292.364258 
	C275.610901,289.897125 264.087402,292.184082 252.615479,295.336426 
	C251.449905,295.656708 250.032944,296.147949 249.926208,297.302979 
	C249.396683,303.033020 247.411819,309.391785 249.191864,314.364990 
	C251.107635,319.717316 253.313431,325.606781 257.806366,330.761322 
z"/>
<path fill="#000000" opacity="1.000000" stroke="none" 
	d="
M207.592880,394.209412 
	C229.533249,399.517731 248.897980,409.285828 266.484406,422.599396 
	C269.987549,425.251373 272.310455,425.409424 275.914001,422.615143 
	C296.274139,406.827423 319.214264,396.588806 344.632904,392.239014 
	C357.968689,389.956970 371.395447,389.910248 384.772827,391.834717 
	C385.323242,394.663361 383.272858,395.354401 381.980255,396.407043 
	C350.141815,422.335144 313.741486,438.846924 274.085724,448.651733 
	C271.892578,449.194000 269.870178,449.122925 267.711548,448.582520 
	C228.426910,438.747650 192.339447,422.311096 160.649460,396.793365 
	C159.300858,395.707458 157.450470,394.872772 157.405884,391.937164 
	C174.161057,389.518280 190.723740,390.247375 207.592880,394.209412 
z"/>
<path fill="#000000" opacity="1.000000" stroke="none" 
	d="
M152.160263,357.534332 
	C152.065674,334.431061 152.082138,311.776703 151.993958,289.122742 
	C151.980759,285.730225 153.060760,284.200409 156.679398,284.675049 
	C186.096024,288.533264 212.892548,298.305023 234.768631,319.178162 
	C238.910309,323.129944 241.261948,328.406525 244.389481,333.099213 
	C246.045776,335.584381 244.577774,337.935608 242.914993,339.900024 
	C239.604889,343.810516 235.372101,346.505615 230.581085,348.121552 
	C220.992096,351.355804 213.376862,356.791901 209.203491,366.306366 
	C208.163330,368.677734 206.475464,368.862915 204.300812,368.196106 
	C188.618149,363.387543 172.514359,361.113800 156.177628,360.268005 
	C154.460541,360.179108 152.792450,360.053864 152.160263,357.534332 
z"/>
<path fill="#000000" opacity="1.000000" stroke="none" 
	d="
M370.336365,361.377014 
	C360.681396,362.800812 351.496063,364.303528 342.560608,367.013550 
	C340.111603,367.756287 338.139496,367.862457 336.927460,364.881378 
	C333.557220,356.591553 327.031738,351.771545 318.801483,348.906555 
	C313.736420,347.143402 308.918396,344.937592 305.229767,340.821075 
	C302.858093,338.174286 302.146240,335.569061 304.325836,332.309296 
	C307.843262,327.048676 310.914551,321.518951 312.842590,315.432495 
	C313.379333,313.738159 314.803009,312.808716 316.108673,311.772705 
	C334.463409,297.208923 355.761230,289.665466 378.539246,285.779327 
	C390.283875,283.775604 390.327545,283.924713 390.330902,296.049072 
	C390.336273,315.524414 390.212799,335.000671 390.383972,354.474426 
	C390.421783,358.775330 389.095764,360.428467 384.701599,360.366791 
	C380.068237,360.301788 375.424316,360.990112 370.336365,361.377014 
z"/>
<path fill="#000000" opacity="1.000000" stroke="none" 
	d="
M467.652283,278.547546 
	C457.458099,287.678986 458.499054,298.658997 469.988647,305.350250 
	C476.904724,309.378021 484.216339,312.636383 491.584778,315.745575 
	C496.829376,317.958588 501.638550,320.913635 506.419586,323.971283 
	C525.657532,336.274689 523.113770,365.508667 504.321381,376.384033 
	C494.756683,381.919189 484.328522,383.610443 473.589783,383.718536 
	C462.376648,383.831451 451.407257,382.013763 440.675690,378.578613 
	C436.471161,377.232758 435.267761,374.961670 435.960022,370.783600 
	C436.801270,365.706512 437.159027,360.549683 437.740723,355.429016 
	C437.904755,353.985077 437.589905,352.356445 439.212372,351.384430 
	C441.108643,351.722931 441.576538,353.531494 442.599670,354.764160 
	C452.654480,366.877716 465.066742,373.308929 481.183289,370.682281 
	C488.500549,369.489746 493.871460,364.539185 495.092987,357.545807 
	C496.309662,350.580139 492.801727,345.743378 487.267395,342.112122 
	C479.554443,337.051392 470.727448,334.279266 462.544128,330.185303 
	C458.827728,328.326050 455.063324,326.461121 451.645142,324.124207 
	C431.083588,310.066711 432.539673,281.489746 454.310547,269.249359 
	C466.845184,262.201935 480.419373,261.974823 494.149475,263.171082 
	C498.761261,263.572876 503.288757,264.915894 507.862701,265.787262 
	C511.178040,266.418823 512.664368,268.202972 512.320801,271.720276 
	C511.683228,278.246368 511.281708,284.795563 510.646332,293.109467 
	C498.834991,278.131805 485.866028,270.165070 467.652283,278.547546 
z"/>
<path fill="#000000" opacity="1.000000" stroke="none" 
	d="
M586.082886,302.387512 
	C598.921692,306.658783 604.809265,316.108307 604.949890,332.325348 
	C605.020691,340.490540 604.888489,348.657532 604.964966,356.822601 
	C605.036133,364.417938 604.033081,372.194885 609.432312,379.846802 
	C601.301575,380.272949 594.245544,381.230682 587.344849,379.338501 
	C583.050964,378.161133 582.724060,374.041595 582.698303,370.294769 
	C582.619141,358.796295 582.673462,347.296936 582.604187,335.798370 
	C582.591248,333.648743 582.413513,331.470398 582.024841,329.358124 
	C580.685974,322.081268 578.113098,319.158630 572.465942,318.216919 
	C566.101196,317.155548 557.901855,320.328644 555.084106,324.861603 
	C554.029236,326.558533 554.251770,328.394318 554.247559,330.200226 
	C554.212952,345.032104 554.104187,359.865326 554.276917,374.695129 
	C554.324036,378.738190 553.133118,380.540222 548.900879,380.296753 
	C544.582153,380.048340 540.230286,380.074829 535.907593,380.283813 
	C531.886658,380.478210 530.677063,378.738739 530.893677,374.903809 
	C532.548645,345.602203 531.224426,316.271484 531.624817,286.956024 
	C531.691162,282.099762 531.321411,277.258270 529.258484,272.790497 
	C527.870972,269.785492 529.476990,268.820496 531.860413,268.257019 
	C537.527405,266.917267 543.251709,265.803650 548.880127,264.322205 
	C553.141907,263.200409 554.241272,265.068542 554.217651,268.875946 
	C554.137939,281.707550 554.169434,294.539825 554.158752,307.371857 
	C554.157288,309.133759 554.158508,310.895660 554.158508,314.300232 
	C563.835632,305.263641 573.329285,299.518280 586.082886,302.387512 
z"/>
<path fill="#000000" opacity="1.000000" stroke="none" 
	d="
M658.624817,330.905701 
	C663.146301,314.263855 675.459473,303.814453 692.059387,301.685791 
	C698.754395,300.827271 705.387085,300.765717 711.891113,302.237396 
	C733.332275,307.088867 742.571228,322.860748 741.930359,342.869781 
	C741.476196,357.049438 736.373413,369.549164 723.331238,376.766510 
	C707.173157,385.708191 690.270447,386.164642 674.278931,376.679352 
	C660.551270,368.536926 656.651855,354.845337 657.152405,339.663239 
	C657.244507,336.868256 658.071533,334.097473 658.624817,330.905701 
M682.348511,354.150696 
	C683.113892,357.040161 683.632324,360.023865 684.692749,362.800690 
	C687.443787,370.004730 693.244751,373.972351 700.316406,373.816559 
	C707.427612,373.659851 712.412537,369.990417 714.851562,362.315186 
	C719.158386,348.762085 718.816040,335.115509 714.708130,321.558319 
	C713.672668,318.141022 711.686523,315.295197 708.648193,313.245087 
	C699.510132,307.079315 688.555664,310.786926 684.465210,321.819244 
	C680.680664,332.026367 680.415588,342.619720 682.348511,354.150696 
z"/>
<path fill="#000000" opacity="1.000000" stroke="none" 
	d="
M331.612000,377.508484 
	C350.810547,370.018219 370.402893,366.637512 390.554352,366.832336 
	C395.751648,366.882568 396.999969,365.217499 396.925995,360.266296 
	C396.659882,342.448334 397.037903,324.620209 396.724213,306.803802 
	C396.631836,301.556274 398.306183,299.060852 403.466095,298.781219 
	C404.954254,298.700592 406.435059,298.375671 407.904938,298.089264 
	C410.916931,297.502411 412.260864,298.718201 412.257385,301.773804 
	C412.224609,330.422180 412.228912,359.070587 412.191101,387.718964 
	C412.190094,388.497589 411.837006,389.275757 411.440491,390.909363 
	C367.043213,377.040222 325.396057,384.314880 285.655884,407.104797 
	C298.848938,393.886688 314.023834,384.172913 331.612000,377.508484 
z"/>
<path fill="#000000" opacity="1.000000" stroke="none" 
	d="
M130.670319,327.999939 
	C130.673508,319.001862 130.740021,310.503113 130.648315,302.006073 
	C130.613113,298.744720 131.707169,297.513885 135.129211,298.117035 
	C147.741669,300.339966 145.190598,298.985504 145.301804,309.925720 
	C145.471146,326.586914 145.341873,343.251099 145.352493,359.914001 
	C145.356812,366.674927 145.373047,366.623993 152.350739,366.705231 
	C188.810532,367.129669 221.849487,377.574188 250.648087,400.371399 
	C253.093689,402.307343 255.528625,404.276886 257.117615,407.558228 
	C217.551498,384.416992 175.975250,377.058289 130.670517,391.179047 
	C130.670517,369.626923 130.670517,349.063446 130.670319,327.999939 
z"/>
<path fill="#000000" opacity="1.000000" stroke="none" 
	d="
M804.195068,320.662476 
	C803.998108,324.681610 802.284241,324.870331 799.172913,323.937012 
	C788.988098,320.882050 781.372070,323.840057 777.590088,331.844666 
	C776.556274,334.032806 776.342712,336.285828 776.351807,338.642731 
	C776.399231,350.966858 776.284851,363.293304 776.503540,375.614044 
	C776.565979,379.130463 775.447144,380.417847 771.979370,380.290344 
	C767.156006,380.113007 762.319702,380.165680 757.492065,380.268433 
	C754.059448,380.341492 752.823425,379.033112 753.083374,375.458832 
	C754.425598,357.001801 753.470947,338.510223 753.654236,320.033813 
	C753.694458,315.974457 751.610596,312.423279 750.405029,308.221283 
	C757.470337,305.209167 764.778564,303.721436 772.029724,302.198059 
	C774.843323,301.606934 774.804138,304.424866 775.112427,306.333282 
	C775.756714,310.320679 774.521423,314.550018 776.558411,318.899597 
	C778.997925,315.588135 781.001648,312.552582 783.322998,309.783295 
	C788.106262,304.076904 794.203979,301.186615 801.781067,301.739014 
	C804.390930,301.929321 805.757202,302.956665 805.456177,305.826599 
	C804.953369,310.620728 804.628784,315.433563 804.195068,320.662476 
z"/>
<path fill="#000000" opacity="1.000000" stroke="none" 
	d="
M815.485046,312.673767 
	C813.423218,309.323151 813.968689,307.492584 817.641296,306.637695 
	C822.661865,305.469116 827.600769,303.953125 832.612061,302.740784 
	C839.242188,301.136780 839.916992,301.649902 839.938721,308.364899 
	C839.983459,322.185791 839.898865,336.007172 839.946716,349.828033 
	C839.980530,359.611755 839.351074,369.439758 842.159485,379.721802 
	C834.118347,380.723633 826.550232,380.370941 819.016602,380.027618 
	C816.104736,379.894897 816.791931,377.187347 816.797913,375.305115 
	C816.852600,358.155060 816.966553,341.005188 817.030884,323.855133 
	C817.044556,320.198334 817.156677,316.511230 815.485046,312.673767 
z"/>
<path fill="#000000" opacity="1.000000" stroke="none" 
	d="
M629.974243,304.815918 
	C633.607727,303.942963 636.879028,303.290253 640.066101,302.351837 
	C644.510376,301.043243 645.215637,303.400482 645.202271,307.022369 
	C645.142029,323.335663 645.181641,339.649292 645.166504,355.962799 
	C645.159241,363.746033 644.851868,371.543243 647.281189,379.894073 
	C639.081543,380.497803 631.665100,380.407074 624.261780,379.995544 
	C622.089478,379.874786 622.006348,377.834961 622.145569,376.119446 
	C623.319458,361.658936 622.432983,347.175079 622.646667,332.703918 
	C622.766602,324.579865 623.434937,316.347260 618.998108,308.930206 
	C622.358337,306.113312 626.222961,306.185547 629.974243,304.815918 
z"/>
<path fill="#000000" opacity="1.000000" stroke="none" 
	d="
M636.211731,266.449249 
	C643.530090,269.200531 646.759155,273.661499 646.242859,279.874695 
	C645.780701,285.436310 641.557556,290.087067 635.826233,291.093475 
	C630.650513,292.002289 626.156982,290.531311 623.052551,286.214600 
	C619.977844,281.939178 619.600525,277.130035 622.337158,272.596924 
	C625.333740,267.632965 629.824463,265.181091 636.211731,266.449249 
z"/>
<path fill="#000000" opacity="1.000000" stroke="none" 
	d="
M840.893860,281.376221 
	C838.030762,289.014648 833.192261,292.205231 826.386536,291.259857 
	C820.695801,290.469330 816.297729,285.957916 815.718933,280.317230 
	C814.948181,272.806732 820.847412,266.023956 828.283875,265.870544 
	C836.103455,265.709229 841.498596,272.116638 840.893860,281.376221 
z"/>
</svg>